#!OML:ASF G:\JayActor3\Patient Classification 1\Patient 1\Session 6\male.ASF
:FULLY-SPECIFIED
:DEGREES
1124
root 8.84494 13.9562 -3.58945 24.4713 -39.1533 -0.831587
lowerback 38.7091 -1.14579 3.95147
upperback 6.86353 -0.255997 -0.248303
thorax -11.3069 -0.363632 -2.20082
lowerneck -8.48958 0.456529 1.66972
upperneck 23.1224 1.80924 -7.43498
head 8.66831 0.195035 -2.6303
rclavicle 2.01766e-014 -7.78242e-014
rhumerus -16.766 4.41867 -81.1673
rradius 137.533
rwrist 22.1887
rhand 18.7314 -19.5303
rfingers 7.12502
rthumb 43.3515 -43.6509
lclavicle 2.01766e-014 -7.78242e-014
lhumerus -33.4819 16.0847 74.1586
lradius 135.263
lwrist 4.82079
lhand -3.90632 38.2699
lfingers 7.12502
lthumb 21.8439 67.057
rfemur -74.8288 -28.3877 29.5666
rtibia 82.9676
rfoot -29.6469 -9.87599
rtoes -8.85768
lfemur -79.3071 20.0672 -28.6657
ltibia 73.9287
lfoot -17.4939 -3.59725
ltoes -2.7211
1125
root 8.84482 13.9382 -3.59699 24.6205 -39.0491 -0.744149
lowerback 38.812 -1.1537 3.95057
upperback 6.88676 -0.263265 -0.252872
thorax -11.3161 -0.366682 -2.20137
lowerneck -8.49168 0.439103 1.62965
upperneck 23.0693 1.79045 -7.4325
head 8.64941 0.184892 -2.62313
rclavicle -7.35503e-015 -3.96575e-014
rhumerus -16.7327 4.40425 -81.1612
rradius 137.514
rwrist 22.2054
rhand 18.715 -19.5325
rfingers 7.12502
rthumb 43.3362 -43.6586
lclavicle -7.35503e-015 -3.96575e-014
lhumerus -33.4925 16.1301 74.1483
lradius 135.304
lwrist 4.86044
lhand -3.97834 38.3768
lfingers 7.12502
lthumb 21.7748 67.172
rfemur -75.2685 -28.4207 29.6686
rtibia 83.2255
rfoot -29.7169 -9.93006
rtoes -8.91469
lfemur -79.6975 19.8793 -28.746
ltibia 74.117
lfoot -17.4876 -3.54303
ltoes -2.75453
1126
root 8.84455 13.9205 -3.60465 24.7655 -38.9402 -0.663248
lowerback 38.9223 -1.16076 3.95262
upperback 6.91506 -0.267715 -0.252498
thorax -11.3217 -0.368536 -2.19921
lowerneck -8.49416 0.421283 1.59142
upperneck 23.0082 1.77138 -7.434
head 8.62785 0.174595 -2.61749
rclavicle 2.28602e-014 -1.33186e-014
rhumerus -16.6903 4.38166 -81.1456
rradius 137.496
rwrist 22.2072
rhand 18.7157 -19.5332
rfingers 7.12502
rthumb 43.3368 -43.659
lclavicle 2.28602e-014 -1.33186e-014
lhumerus -33.483 16.1541 74.1572
lradius 135.345
lwrist 4.88823
lhand -4.0848 38.5469
lfingers 7.12502
lthumb 21.6725 67.3539
rfemur -75.6906 -28.4448 29.7647
rtibia 83.4784
rfoot -29.7891 -9.98672
rtoes -8.95252
lfemur -80.0746 19.6941 -28.8153
ltibia 74.2988
lfoot -17.4771 -3.49652
ltoes -2.78427
1127
root 8.8439 13.9033 -3.6125 24.9064 -38.8259 -0.591841
lowerback 39.0409 -1.16671 3.95795
upperback 6.94843 -0.268845 -0.24711
thorax -11.3239 -0.368991 -2.19466
lowerneck -8.49963 0.406656 1.54905
upperneck 22.9447 1.75589 -7.42872
head 8.60621 0.166291 -2.60845
rclavicle 8.44835e-014 -3.18055e-015
rhumerus -16.6431 4.35227 -81.1242
rradius 137.478
rwrist 22.2058
rhand 18.7172 -19.5307
rfingers 7.12502
rthumb 43.3382 -43.656
lclavicle 8.44835e-014 -3.18055e-015
lhumerus -33.46 16.1875 74.1651
lradius 135.368
lwrist 4.90931
lhand -4.14143 38.5935
lfingers 7.12502
lthumb 21.6181 67.4067
rfemur -76.0914 -28.4601 29.8565
rtibia 83.727
rfoot -29.8671 -10.0397
rtoes -8.96257
lfemur -80.4357 19.5116 -28.8687
ltibia 74.4744
lfoot -17.4633 -3.45582
ltoes -2.81274
1128
root 8.84314 13.8862 -3.62044 25.0381 -38.706 -0.514667
lowerback 39.162 -1.17302 3.96701
upperback 6.98543 -0.269391 -0.244501
thorax -11.3225 -0.369186 -2.19527
lowerneck -8.50069 0.391149 1.51599
upperneck 22.8745 1.73647 -7.4196
head 8.58128 0.157584 -2.59991
rclavicle 6.75868e-015 2.39536e-014
rhumerus -16.5983 4.30824 -81.1012
rradius 137.46
rwrist 22.2069
rhand 18.7142 -19.5289
rfingers 7.12502
rthumb 43.3354 -43.6553
lclavicle 6.75868e-015 2.39536e-014
lhumerus -33.4241 16.2157 74.1693
lradius 135.374
lwrist 4.91704
lhand -4.16159 38.5524
lfingers 7.12502
lthumb 21.5988 67.3679
rfemur -76.4827 -28.4751 29.9361
rtibia 83.9753
rfoot -29.9451 -10.0913
rtoes -8.95931
lfemur -80.7851 19.3225 -28.9199
ltibia 74.6438
lfoot -17.4485 -3.41867
ltoes -2.84377
1129
root 8.84195 13.8691 -3.62847 25.1638 -38.5804 -0.432594
lowerback 39.2784 -1.18994 3.86273
upperback 7.02216 -0.315734 -0.157017
thorax -11.3222 -0.387077 -2.02557
lowerneck -8.47017 0.429984 1.30422
upperneck 22.7797 1.81928 -7.41083
head 8.54705 0.181922 -2.55043
rclavicle -6.59965e-014 2.47487e-014
rhumerus -16.4965 4.46536 -80.9917
rradius 137.425
rwrist 22.1748
rhand 18.7104 -19.5288
rfingers 7.12502
rthumb 43.3319 -43.6564
lclavicle -6.59965e-014 2.47487e-014
lhumerus -33.4806 16.4503 74.23
lradius 135.398
lwrist 4.8853
lhand -4.22091 38.486
lfingers 7.12502
lthumb 21.5418 67.308
rfemur -76.8667 -28.4899 30.0081
rtibia 84.2235
rfoot -30.0251 -10.1484
rtoes -8.95373
lfemur -81.1272 19.129 -28.9703
ltibia 74.8081
lfoot -17.4328 -3.38626
ltoes -2.86842
1130
root 8.84014 13.8522 -3.63653 25.2816 -38.4526 -0.342156
lowerback 39.3923 -1.21268 3.67169
upperback 7.05728 -0.395125 -0.00968515
thorax -11.324 -0.417689 -1.73194
lowerneck -8.41508 0.503402 0.965404
upperneck 22.6704 1.96908 -7.40469
head 8.50617 0.227117 -2.47344
rclavicle 2.98177e-015 -2.96189e-014
rhumerus -16.3575 4.77122 -80.8188
rradius 137.377
rwrist 22.1267
rhand 18.6967 -19.538
rfingers 7.12502
rthumb 43.3191 -43.6702
lclavicle 2.98177e-015 -2.96189e-014
lhumerus -33.6128 16.8313 74.3208
lradius 135.428
lwrist 4.79161
lhand -4.28148 38.3515
lfingers 7.12502
lthumb 21.4836 67.1801
rfemur -77.2427 -28.5045 30.0703
rtibia 84.472
rfoot -30.1096 -10.2114
rtoes -8.95009
lfemur -81.4615 18.9361 -29.0265
ltibia 74.969
lfoot -17.4211 -3.34992
ltoes -2.95722
1131
root 8.83753 13.8356 -3.64478 25.3975 -38.3185 -0.249556
lowerback 39.504 -1.24491 3.40269
upperback 7.08843 -0.508953 0.194607
thorax -11.3297 -0.461911 -1.32155
lowerneck -8.34254 0.613694 0.499816
upperneck 22.5557 2.18772 -7.39697
head 8.46267 0.294357 -2.36782
rclavicle 2.76311e-014 -5.56597e-015
rhumerus -16.1827 5.22242 -80.5932
rradius 137.313
rwrist 22.0661
rhand 18.6821 -19.5475
rfingers 7.12502
rthumb 43.3054 -43.6846
lclavicle 2.76311e-014 -5.56597e-015
lhumerus -33.8208 17.3602 74.4349
lradius 135.471
lwrist 4.65824
lhand -4.31905 38.1894
lfingers 7.12502
lthumb 21.4476 67.0222
rfemur -77.612 -28.519 30.1344
rtibia 84.7191
rfoot -30.1992 -10.2945
rtoes -8.97166
lfemur -81.7924 18.7465 -29.0837
ltibia 75.1281
lfoot -17.4106 -3.31942
ltoes -3.07101
1132
root 8.83334 13.8188 -3.65378 25.5689 -38.2053 -0.18844
lowerback 39.5652 -1.26074 3.07937
upperback 7.11561 -0.621327 0.433342
thorax -11.3212 -0.50412 -0.846932
lowerneck -8.25853 0.741632 -0.0305651
upperneck 22.4386 2.43942 -7.3926
head 8.41661 0.371879 -2.24952
rclavicle 1.44119e-014 -2.68359e-014
rhumerus -15.9885 5.74737 -80.3431
rradius 137.244
rwrist 22.0061
rhand 18.6796 -19.5555
rfingers 7.12502
rthumb 43.3031 -43.6934
lclavicle 1.44119e-014 -2.68359e-014
lhumerus -34.0687 18.0034 74.5294
lradius 135.512
lwrist 4.45259
lhand -4.10055 37.8782
lfingers 7.12502
lthumb 21.6574 66.6869
rfemur -78.015 -28.4777 30.2407
rtibia 84.9674
rfoot -30.3001 -10.4118
rtoes -9.02109
lfemur -82.1811 18.618 -29.1479
ltibia 75.2953
lfoot -17.3925 -3.32482
ltoes -3.19171
